<svg width="40" height="40" viewBox="0 0 40 40" fill="none" xmlns="http://www.w3.org/2000/svg"><path fill-rule="evenodd" clip-rule="evenodd" d="M0 20C0 8.95431 8.95431 0 20 0C31.0457 0 40 8.95431 40 20C40 31.0457 31.0457 40 20 40C8.95431 40 0 31.0457 0 20ZM21 16C21.7956 16 22.5587 16.3161 23.1213 16.8787C23.6839 17.4413 24 18.2044 24 19C24 19.2652 24.1054 19.5196 24.2929 19.7071C24.4804 19.8946 24.7348 20 25 20C25.2652 20 25.5196 19.8946 25.7071 19.7071C25.8946 19.5196 26 19.2652 26 19C26 17.6739 25.4732 16.4021 24.5355 15.4645C23.5979 14.5268 22.3261 14 21 14C20.7348 14 20.4804 14.1054 20.2929 14.2929C20.1054 14.4804 20 14.7348 20 15C20 15.2652 20.1054 15.5196 20.2929 15.7071C20.4804 15.8946 20.7348 16 21 16ZM25.9497 14.0503C24.637 12.7375 22.8565 12 21 12C20.7348 12 20.4804 11.8946 20.2929 11.7071C20.1054 11.5196 20 11.2652 20 11C20 10.7348 20.1054 10.4804 20.2929 10.2929C20.4804 10.1054 20.7348 10 21 10C23.3869 10 25.6761 10.9482 27.364 12.636C29.0518 14.3239 30 16.6131 30 19C30 19.2652 29.8946 19.5196 29.7071 19.7071C29.5196 19.8946 29.2652 20 29 20C28.7348 20 28.4804 19.8946 28.2929 19.7071C28.1054 19.5196 28 19.2652 28 19C28 17.1435 27.2625 15.363 25.9497 14.0503ZM29.4741 23.4919C29.6 23.6056 29.695 23.7495 29.75 23.91C29.8344 24.1474 29.898 24.3916 29.94 24.64C29.9802 24.8913 30.0003 25.1455 30 25.4C30 26.0041 29.881 26.6022 29.6498 27.1603C29.4187 27.7184 29.0798 28.2255 28.6527 28.6527C28.2255 29.0798 27.7184 29.4187 27.1603 29.6498C26.6022 29.881 26.0041 30 25.4 30C21.3173 29.9947 17.4033 28.3705 14.5164 25.4836C11.6295 22.5967 10.0053 18.6827 10 14.6C10 13.38 10.4846 12.21 11.3473 11.3473C12.21 10.4846 13.38 10 14.6 10C14.8593 10.0079 15.1173 10.0414 15.37 10.1C15.6153 10.1363 15.8565 10.1966 16.09 10.28C16.2505 10.335 16.3944 10.43 16.5081 10.5559C16.6219 10.6819 16.7016 10.8347 16.74 11L18.11 16.93C18.1469 17.0929 18.1425 17.2624 18.0971 17.4231C18.0516 17.5838 17.9667 17.7306 17.85 17.85C17.7273 17.9916 17.7115 17.9995 16.6426 18.5379C16.5789 18.57 16.5114 18.604 16.44 18.64C17.425 20.8009 19.1532 22.5362 21.31 23.53C21.96 22.29 21.97 22.28 22.11 22.15C22.2294 22.0333 22.3762 21.9484 22.5369 21.9029C22.6976 21.8575 22.8671 21.8531 23.03 21.89L29.03 23.26C29.1953 23.2984 29.3481 23.3781 29.4741 23.4919Z" fill="white"></path></svg>