<svg width="15" height="14" viewBox="0 0 15 14" fill="none" xmlns="http://www.w3.org/2000/svg"><g clip-path="url(#clock__clip0)"><path d="M9.4502 0.420044C6.5552 0.420044 4.2002 2.77504 4.2002 5.67004C4.2002 8.56504 6.5552 10.92 9.4502 10.92C12.3452 10.92 14.7002 8.56504 14.7002 5.67004C14.7002 2.77504 12.3452 0.420044 9.4502 0.420044ZM9.4502 10.35C6.8702 10.35 4.7552 8.25004 4.7552 5.65504C4.7552 3.06004 6.8552 0.960044 9.4502 0.960044C12.0452 0.960044 14.1452 3.06004 14.1452 5.65504C14.1452 8.25004 12.0452 10.35 9.4502 10.35Z" fill="white"></path><path d="M11.5952 5.46002H10.0652C10.0052 5.28002 9.88518 5.14502 9.72018 5.07002V2.67002C9.72018 2.52002 9.60018 2.40002 9.45018 2.40002C9.30018 2.40002 9.18018 2.52002 9.18018 2.67002V5.07002C8.95518 5.17502 8.80518 5.40002 8.80518 5.67002C8.80518 6.03002 9.09018 6.33002 9.45018 6.33002C9.67518 6.33002 9.88518 6.21002 10.0052 6.01502H11.5952C11.7452 6.01502 11.8652 5.89502 11.8652 5.74502C11.8652 5.59502 11.7452 5.46002 11.5952 5.46002Z" fill="white"></path><path d="M6.16501 10.95L3.99002 12.585C3.87002 12.675 3.84002 12.855 3.93002 12.975C3.99002 13.05 4.06502 13.08 4.15502 13.08C4.21502 13.08 4.27502 13.065 4.32002 13.02L6.49502 11.4C6.61502 11.31 6.64502 11.13 6.55502 11.01C6.46502 10.89 6.30001 10.86 6.16501 10.95Z" fill="white"></path><path d="M1.14012 8.73006C1.20012 8.73006 1.26012 8.71506 1.30512 8.67006L3.48012 7.05006C3.60012 6.96006 3.63012 6.78006 3.54012 6.66006C3.45012 6.54006 3.27012 6.51006 3.15012 6.60006L0.975123 8.23506C0.855123 8.32506 0.825123 8.50506 0.915123 8.62506C0.960123 8.70006 1.05012 8.73006 1.14012 8.73006Z" fill="white"></path><path d="M4.08009 9.45001C3.99009 9.33001 3.81009 9.30001 3.69009 9.40501L0.405092 11.91C0.285092 12 0.255092 12.18 0.360092 12.3C0.420092 12.375 0.495092 12.405 0.585092 12.405C0.645092 12.405 0.705092 12.39 0.750092 12.345L4.03509 9.84001C4.15509 9.73501 4.17009 9.57001 4.08009 9.45001Z" fill="white"></path></g><defs><clipPath id="clock__clip0"><rect width="15" height="13.8" fill="white"></rect></clipPath></defs></svg>