<svg width="20" height="20" viewBox="0 0 20 20" fill="none" xmlns="http://www.w3.org/2000/svg"><path fill-rule="evenodd" clip-rule="evenodd" d="M10 0C4.47715 0 0 4.47715 0 10C0 15.5228 4.47715 20 10 20C15.5228 20 20 15.5228 20 10C20 7.34784 18.9464 4.8043 17.0711 2.92893C15.1957 1.05357 12.6522 0 10 0ZM10 18.0001C5.58174 18.0001 2 14.4184 2 10.0001C2 5.58184 5.58174 2.00012 10 2.00012C14.4183 2.00012 18.0001 5.58184 18.0001 10.0001C18.0001 12.1219 17.1572 14.1567 15.6569 15.657C14.1566 17.1573 12.1218 18.0001 10 18.0001ZM13.8767 11.17C13.9743 11.2787 14.0183 11.4254 13.9967 11.57H13.9567C13.6758 13.5412 11.9878 15.0057 9.99666 15.0057C8.00552 15.0057 6.31755 13.5412 6.03667 11.57C6.015 11.4254 6.05901 11.2787 6.15667 11.17C6.25177 11.0596 6.39103 10.9973 6.53667 11H13.4967C13.6423 10.9973 13.7816 11.0596 13.8767 11.17ZM12.9994 6.00043C11.8948 6.00043 10.9994 6.89586 10.9994 8.00043V8.50043C10.9994 8.77657 11.2233 9.00043 11.4994 9.00043H14.4994C14.7755 9.00043 14.9994 8.77657 14.9994 8.50043V8.00043C14.9994 6.89586 14.104 6.00043 12.9994 6.00043ZM8.99941 8.00043V8.50043C8.99941 8.77657 8.77555 9.00043 8.49941 9.00043H5.49942C5.22328 9.00043 4.99942 8.77657 4.99942 8.50043V8.00043C4.99942 6.89586 5.89485 6.00043 6.99942 6.00043C8.10398 6.00043 8.99941 6.89586 8.99941 8.00043Z" fill="#C0C6D1"></path></svg>