<svg width="20" height="20" viewBox="0 0 20 20" fill="none" xmlns="http://www.w3.org/2000/svg"><path d="M11.3043 18.2364C8.94126 20.5879 5.11937 20.5879 2.75635 18.2364C0.41455 15.8943 0.41455 12.1003 2.75635 9.75823L11.2542 1.32009C13.0299 -0.440028 15.8945 -0.440028 17.6702 1.32009C18.5211 2.1597 19 3.30467 19 4.49939C19 5.6941 18.5211 6.83907 17.6702 7.67869L9.87295 15.417C9.30874 15.9879 8.53909 16.3092 7.73597 16.3092C6.93285 16.3092 6.16319 15.9879 5.59899 15.417C5.0336 14.8542 4.7158 14.0897 4.7158 13.2925C4.7158 12.4952 5.0336 11.7307 5.59899 11.1679L10.5436 6.269C10.6375 6.17436 10.7655 6.12113 10.8989 6.12113C11.0323 6.12113 11.1603 6.17436 11.2542 6.269L11.7947 6.79888C11.8895 6.89274 11.9428 7.02051 11.9428 7.1538C11.9428 7.28709 11.8895 7.41486 11.7947 7.50872L6.85015 12.4076C6.43186 12.9092 6.46647 13.6469 6.9299 14.1072C7.39333 14.5675 8.13201 14.5979 8.6318 14.1773L16.429 6.44896C16.948 5.93462 17.2399 5.23461 17.2399 4.50438C17.2399 3.77416 16.948 3.07415 16.429 2.55981C15.3437 1.48205 13.5907 1.48205 12.5054 2.55981L3.98749 10.998C2.33316 12.6561 2.33316 15.3385 3.98749 16.9966C5.6691 18.6441 8.3615 18.6441 10.0431 16.9966L15.6984 11.3879C15.8976 11.1896 16.2198 11.1896 16.419 11.3879L16.9495 11.9178C17.0463 12.0085 17.1012 12.1351 17.1012 12.2677C17.1012 12.4002 17.0463 12.5269 16.9495 12.6176L11.3043 18.2364Z" fill="#C0C6D1"></path></svg>